# xmcd
#
# Track frame offsets:
# 150
# 12377
# 22520
# 33109
# 44505
# 60015
# 70624
# 82030
# 93920
# 105349
# 114576
# 124218
# 139641
# 150311
# 164954
#
# Disc length: 2387 seconds
#
# Revision: 1
# Processed by: cddbd v1.4PL0 Copyright (c) Steve Scherf et al.
# Submitted via: CedeCatalogueitor 2.5 http://usuarios.lycos.es/kakasboy
#
DISCID=ad09510f
DTITLE=Elvis Presley - Baladas [CD 1)
DYEAR=1998
DGENRE=
TTITLE0=Love Me Tender
TTITLE1=Loving You
TTITLE2=When My Blue Moon Turns To Gold Again
TTITLE3=Have I Told You Lately That I Love You
TTITLE4=I Love You Because
TTITLE5=I Will Never Let You Go
TTITLE6=I Was The One
TTITLE7=I Want You, I Need You, I Love You
TTITLE8=Tryin' To Get To You
TTITLE9=Don't Leave Me Now
TTITLE10=Let Me
TTITLE11=That's When Your Heartaches Begin
TTITLE12=Good Luck Charm
TTITLE13=It's Now Or Never
TTITLE14=Are You Lonesome To-night?
EXTD=
EXTT0=
EXTT1=
EXTT2=
EXTT3=
EXTT4=
EXTT5=
EXTT6=
EXTT7=
EXTT8=
EXTT9=
EXTT10=
EXTT11=
EXTT12=
EXTT13=
EXTT14=
PLAYORDER=
